<svg xmlns="http://www.w3.org/2000/svg" width="170.667" height="170.667" preserveAspectRatio="xMidYMid meet" version="1.0" viewBox="0 0 128 128"><g fill="#000" stroke="none"><path d="M260 1276 c0 -14 314 -544 331 -558 25 -21 78 -24 101 -5 15 11 328 547 328 561 0 3 -171 6 -380 6 -209 0 -380 -2 -380 -4z" transform="translate(0.000000,128.000000) scale(0.100000,-0.100000)"/><path d="M592 563 c-17 -14 -332 -546 -332 -559 0 -2 171 -4 380 -4 209 0 380 3 380 6 0 16 -305 533 -326 552 -30 26 -74 29 -102 5z" transform="translate(0.000000,128.000000) scale(0.100000,-0.100000)"/></g></svg>